<svg width="30" height="30" viewBox="0 0 30 30" fill="none" xmlns="http://www.w3.org/2000/svg">
<path d="M24.5454 14.9659C24.5454 13.0795 24.0454 11.3582 23.0454 9.80182C22.0454 8.24545 20.7045 7.08045 19.0227 6.30682C18.6818 6.14773 18.4318 5.90364 18.2727 5.57454C18.1136 5.24545 18.0909 4.91 18.2045 4.56818C18.3409 4.20455 18.5795 3.94318 18.9204 3.78409C19.2614 3.625 19.6136 3.625 19.9773 3.78409C22.1818 4.76136 23.9491 6.25 25.2791 8.25C26.6091 10.25 27.2736 12.4886 27.2727 14.9659C27.2718 17.4432 26.6068 19.6818 25.2777 21.6818C23.9486 23.6818 22.1818 25.1705 19.9773 26.1477C19.6136 26.3068 19.2614 26.3068 18.9204 26.1477C18.5795 25.9886 18.3409 25.7273 18.2045 25.3636C18.0909 25.0227 18.1136 24.6877 18.2727 24.3586C18.4318 24.0295 18.6818 23.785 19.0227 23.625C20.7045 22.8523 22.0454 21.6877 23.0454 20.1314C24.0454 18.575 24.5454 16.8532 24.5454 14.9659ZM8.18181 19.0909H4.09091C3.70454 19.0909 3.38091 18.96 3.12 18.6982C2.85909 18.4364 2.72818 18.1127 2.72727 17.7273V12.2727C2.72727 11.8864 2.85818 11.5627 3.12 11.3018C3.38182 11.0409 3.70545 10.91 4.09091 10.9091H8.18181L12.6818 6.40909C13.1136 5.97727 13.6082 5.88045 14.1654 6.11864C14.7227 6.35682 15.0009 6.78318 15 7.39773V22.6023C15 23.2159 14.7218 23.6423 14.1654 23.8814C13.6091 24.1205 13.1145 24.0236 12.6818 23.5909L8.18181 19.0909ZM21.1364 15C21.1364 15.9318 20.9377 16.8127 20.5404 17.6427C20.1432 18.4727 19.5918 19.1714 18.8864 19.7386C18.6364 19.9205 18.3809 19.9605 18.12 19.8586C17.8591 19.7568 17.7282 19.5464 17.7273 19.2273V10.7045C17.7273 10.3864 17.8582 10.1764 18.12 10.0745C18.3818 9.97273 18.6373 10.0123 18.8864 10.1932C19.5909 10.7614 20.1423 11.4659 20.5404 12.3068C20.9386 13.1477 21.1373 14.0455 21.1364 15ZM1.36364 8.18182C0.977272 8.18182 0.653636 8.05091 0.392727 7.78909C0.131818 7.52727 0.00090909 7.20364 0 6.81818V2.72727C0 1.97727 0.267273 1.33545 0.801818 0.801818C1.33636 0.268182 1.97818 0.000909091 2.72727 0H6.81818C7.20454 0 7.52863 0.130909 7.79045 0.392727C8.05227 0.654545 8.18272 0.978182 8.18181 1.36364C8.1809 1.74909 8.05 2.07318 7.78909 2.33591C7.52818 2.59864 7.20454 2.72909 6.81818 2.72727H2.72727V6.81818C2.72727 7.20455 2.59636 7.52864 2.33454 7.79045C2.07273 8.05227 1.74909 8.18273 1.36364 8.18182ZM23.1818 30C22.7954 30 22.4718 29.8691 22.2109 29.6073C21.95 29.3455 21.8191 29.0218 21.8182 28.6364C21.8173 28.2509 21.9482 27.9273 22.2109 27.6655C22.4736 27.4036 22.7973 27.2727 23.1818 27.2727H27.2727V23.1818C27.2727 22.7955 27.4036 22.4718 27.6654 22.2109C27.9273 21.95 28.2509 21.8191 28.6363 21.8182C29.0218 21.8173 29.3459 21.9482 29.6086 22.2109C29.8713 22.4736 30.0018 22.7973 30 23.1818V27.2727C30 28.0227 29.7332 28.665 29.1995 29.1995C28.6659 29.7341 28.0236 30.0009 27.2727 30H23.1818Z" fill="black"/>
</svg>
